<svg id="Layer_1" data-name="Layer 1" xmlns="http://www.w3.org/2000/svg" xmlns:xlink="http://www.w3.org/1999/xlink" viewBox="0 0 318.7 288.19"><defs><style>.cls-1{fill:url(#linear-gradient);}.cls-2{fill:url(#linear-gradient-2);}.cls-3{fill:url(#linear-gradient-3);}.cls-4{fill:url(#linear-gradient-4);}.cls-5{fill:url(#linear-gradient-5);}.cls-6{fill:url(#linear-gradient-6);}.cls-7{fill:url(#linear-gradient-7);}.cls-8{fill:url(#linear-gradient-8);}.cls-9{fill:#fbb03b;}.cls-10,.cls-17{stroke-miterlimit:10;}.cls-10{stroke-width:5px;fill:url(#linear-gradient-9);stroke:url(#linear-gradient-10);}.cls-11{fill:#f7931e;}.cls-12{fill:#c1272d;}.cls-13{fill:#a67c52;}.cls-14{fill:#1099dd;}.cls-15{fill:#5cd1ff;}.cls-16{fill:#006da3;}.cls-17{stroke-width:3px;fill:url(#New_Gradient_Swatch_1);stroke:url(#New_Gradient_Swatch_1-2);}.cls-18,.cls-19{fill:#fff;}.cls-19{font-size:49.51px;font-family:BlackerDisplay-Heavy, Blacker Display;font-weight:800;}.cls-20{letter-spacing:-0.07em;}.cls-21{letter-spacing:-0.02em;}</style><linearGradient id="linear-gradient" x1="97" y1="220.29" x2="220.9" y2="220.29" gradientUnits="userSpaceOnUse"><stop offset="0" stop-color="#e7272d"/><stop offset="1" stop-color="#8d1c24"/></linearGradient><linearGradient id="linear-gradient-2" x1="220.9" y1="124.64" x2="240.9" y2="124.64" xlink:href="#linear-gradient"/><linearGradient id="linear-gradient-3" x1="77.9" y1="124.64" x2="97.8" y2="124.64" xlink:href="#linear-gradient"/><linearGradient id="linear-gradient-4" x1="77.9" y1="209.04" x2="97" y2="209.04" xlink:href="#linear-gradient"/><linearGradient id="linear-gradient-5" x1="220.9" y1="209.04" x2="240.1" y2="209.04" xlink:href="#linear-gradient"/><linearGradient id="linear-gradient-6" x1="39" y1="207.19" x2="279.8" y2="207.19" xlink:href="#linear-gradient"/><linearGradient id="linear-gradient-7" x1="0" y1="187.74" x2="39" y2="187.74" xlink:href="#linear-gradient"/><linearGradient id="linear-gradient-8" x1="279.8" y1="187.74" x2="318.7" y2="187.74" xlink:href="#linear-gradient"/><linearGradient id="linear-gradient-9" x1="100.7" y1="1024.1" x2="245.1" y2="879.7" gradientTransform="translate(-14.2 -788.26)" gradientUnits="userSpaceOnUse"><stop offset="0" stop-color="#20b2aa"/><stop offset="1" stop-color="#007786"/></linearGradient><linearGradient id="linear-gradient-10" x1="158.7" y1="196.34" x2="158.7" y2="130.94" gradientTransform="matrix(1, 0, 0, 1, 0, 0)" xlink:href="#linear-gradient-9"/><linearGradient id="New_Gradient_Swatch_1" x1="136.93" y1="856.07" x2="210.15" y2="929.3" gradientTransform="translate(-14.2 -788.26)" gradientUnits="userSpaceOnUse"><stop offset="0" stop-color="#0071bc"/><stop offset="1" stop-color="#00386a"/></linearGradient><linearGradient id="New_Gradient_Swatch_1-2" x1="159.35" y1="121.34" x2="159.35" y2="87.64" gradientTransform="matrix(1, 0, 0, 1, 0, 0)" xlink:href="#New_Gradient_Swatch_1"/></defs><title>Logo</title><polygon class="cls-1" points="220.9 196.84 97 196.84 97 231.34 147.02 231.34 146.99 231.37 159.36 243.75 171.74 231.37 171.7 231.34 220.9 231.34 220.9 196.84"/><polygon class="cls-2" points="220.9 124.44 220.9 135.63 220.9 144.84 240.9 144.84 240.9 135.63 240.9 104.44 220.9 124.44"/><polygon class="cls-3" points="77.9 104.44 77.9 135.63 77.9 144.84 97.8 144.84 97.8 135.63 97.8 124.44 77.9 104.44"/><polygon class="cls-4" points="77.9 186.74 77.9 212.24 97 231.34 97 186.74 77.9 186.74"/><polygon class="cls-5" points="240.1 186.74 240.1 212.24 220.9 231.34 220.9 186.74 240.1 186.74"/><rect class="cls-6" x="39" y="202.24" width="240.8" height="9.9"/><polygon class="cls-7" points="39 212.24 39 202.24 0 163.24 0 173.24 39 212.24"/><polygon class="cls-8" points="279.8 212.24 279.8 202.24 318.7 163.24 318.7 173.24 279.8 212.24"/><rect class="cls-9" x="164.81" y="195.78" width="17.5" height="17.5" transform="translate(-107.99 180.37) rotate(-45)"/><polygon class="cls-9" points="279.8 124.33 39 124.33 0 163.34 39 202.34 279.8 202.34 318.7 163.34 279.8 124.33"/><polygon class="cls-10" points="272.9 133.44 44.5 133.44 14.3 163.63 44.5 193.84 272.9 193.84 303.1 163.63 272.9 133.44"/><polygon class="cls-11" points="168.5 50.94 159.4 36.23 150.3 50.94 138 31.14 138 52.94 138 64.53 138 71.94 180.8 71.94 180.8 64.53 180.8 52.94 180.8 31.14 168.5 50.94"/><polygon class="cls-9" points="159.4 36.23 159.4 71.94 138 71.94 138 31.14 150.3 50.94 159.4 36.23"/><rect class="cls-12" x="138" y="68.14" width="42.8" height="7.4"/><rect class="cls-13" x="97.8" y="103.94" width="123.1" height="20.4"/><rect class="cls-9" x="160.11" y="257.98" width="26.9" height="26.9" transform="translate(-155.3 199.96) rotate(-45)"/><rect class="cls-14" x="165.01" y="262.88" width="17.1" height="17.1" transform="translate(-155.3 199.96) rotate(-45)"/><polygon class="cls-15" points="147.3 269.13 159.4 269.13 159.4 257.04 147.3 269.13"/><polygon class="cls-16" points="171.5 269.13 159.4 269.13 159.4 281.24 171.5 269.13"/><rect class="cls-9" x="123.97" y="241.4" width="23.1" height="23.1" transform="translate(-153.37 167.65) rotate(-45)"/><rect class="cls-14" x="129.4" y="246.87" width="12.2" height="12.2" transform="translate(-153.39 167.64) rotate(-45)"/><polygon class="cls-15" points="112.7 250.63 121.3 250.63 121.3 242.03 112.7 250.63"/><polygon class="cls-16" points="129.9 250.63 121.3 250.63 121.3 259.33 129.9 250.63"/><rect class="cls-9" x="200.09" y="241.4" width="23.1" height="23.1" transform="translate(-131.07 221.48) rotate(-45)"/><rect class="cls-14" x="205.52" y="246.87" width="12.2" height="12.2" transform="translate(-131.09 221.47) rotate(-45)"/><polygon class="cls-15" points="188.8 250.63 197.4 250.63 197.4 242.03 188.8 250.63"/><polygon class="cls-16" points="206 250.63 197.4 250.63 197.4 259.33 206 250.63"/><rect class="cls-9" x="164.81" y="5.89" width="17.5" height="17.5" transform="translate(26.28 124.75) rotate(-45)"/><rect class="cls-14" x="168.01" y="9.09" width="11.1" height="11.1" transform="translate(26.28 124.75) rotate(-45)"/><polygon class="cls-15" points="151.5 12.34 159.4 12.34 159.4 4.54 151.5 12.34"/><polygon class="cls-16" points="167.2 12.34 159.4 12.34 159.4 20.23 167.2 12.34"/><polygon class="cls-9" points="220.9 84.53 97.8 84.53 77.9 104.44 97.8 124.44 220.9 124.44 240.9 104.44 220.9 84.53"/><polygon class="cls-17" points="217.3 89.14 101.5 89.14 86.1 104.44 101.5 119.83 217.3 119.83 232.6 104.44 217.3 89.14"/><path class="cls-18" d="M125.8,109.7a2.93,2.93,0,0,1-1,2,5.26,5.26,0,0,1-3.9,1.3,5.2,5.2,0,0,1-4-1.6l2-2.2a4.4,4.4,0,0,0,3.9,2.4c.7,0,1-.2,1-.6,0-.9-2.2-2.9-4.6-4.3a4.41,4.41,0,0,1-2.1-3.3,3.55,3.55,0,0,1,.2-1c1.1-2.1,2.5-2.3,4.8-2.3a5.6,5.6,0,0,1,2.9,1l-1,2.7c-1.2-1-2.6-2.2-4.4-2.2h0c-.6,0-.8.2-.8.5,0,.8,1.5,2.3,2.8,3C123.5,106.4,125.8,107.9,125.8,109.7Z" transform="translate(-14.2 -2.26)"/><path class="cls-18" d="M134.6,112.8h-8.4a3.85,3.85,0,0,0,.7-2v-8.4a2.94,2.94,0,0,0-.7-2h8.4l-.9,2.3-1.1-.8a1.24,1.24,0,0,0-.3-.2,1,1,0,0,0-.4-.1h-2.7V106H131a2.94,2.94,0,0,0,2-.7v2.5a3.83,3.83,0,0,0-2-.7h-1.8v4.4h2.7a1,1,0,0,0,.4-.1,1.24,1.24,0,0,0,.3-.2l1.1-.8Z" transform="translate(-14.2 -2.26)"/><path class="cls-18" d="M142.1,111.6h.2v-2.4a4.3,4.3,0,0,0-.7-2.1h3.5a3.83,3.83,0,0,0-.7,2.1v2.2a5.35,5.35,0,0,1-4,1.6c-3,0-5.4-1.7-5.4-6.4s2.4-6.5,5.4-6.5a4.7,4.7,0,0,1,3.8,1.5l-1.9,2.3c-.7-1.2-1.8-2-4.3-2h0c-.8,0-1.1.8-1.1,2a12.44,12.44,0,0,0,.5,3.1C137.9,109.4,139.1,111.6,142.1,111.6Z" transform="translate(-14.2 -2.26)"/><path class="cls-18" d="M145.1,100.4h5.1s3.3,0,3.3,2.6a3.2,3.2,0,0,1-2.8,3.5c.7,1.1,3.1,5.2,4.6,6.2a14.78,14.78,0,0,1-1.6.1,2.9,2.9,0,0,1-1.4-.3c-.7-.4-4-5.2-4.2-6v4.1a3.41,3.41,0,0,0,.7,2h-3.7a3.85,3.85,0,0,0,.7-2v-8.4A3.68,3.68,0,0,0,145.1,100.4Zm3,5.5h.8a2.38,2.38,0,0,0,2.4-2.5c0-1.8-2.4-1.8-2.4-1.8h-.8v4.3Z" transform="translate(-14.2 -2.26)"/><path class="cls-18" d="M163.8,112.8h-8.4a3.85,3.85,0,0,0,.7-2v-8.4a2.94,2.94,0,0,0-.7-2h8.4l-.9,2.3-1.1-.8a1.24,1.24,0,0,0-.3-.2,1,1,0,0,0-.4-.1h-2.7V106h1.8a2.94,2.94,0,0,0,2-.7v2.5a3.83,3.83,0,0,0-2-.7h-1.8v4.4h2.7a1,1,0,0,0,.4-.1,1.24,1.24,0,0,0,.3-.2l1.1-.8Z" transform="translate(-14.2 -2.26)"/><path class="cls-18" d="M164.1,100.4h4.7a5.19,5.19,0,0,1,5.2,5.5c0,6.8-6,6.8-6,6.8h-4a3.85,3.85,0,0,0,.7-2v-8.4A2.19,2.19,0,0,0,164.1,100.4Zm3.1,10.3v.8h.5c.7,0,3.9-.3,3.9-5.2,0-4.7-3.6-4.7-3.6-4.7h-.8v9.1Z" transform="translate(-14.2 -2.26)"/><path class="cls-18" d="M180.6,100.1c3,0,5.4,1.8,5.4,6.5s-2.4,6.4-5.4,6.4-5.4-1.7-5.4-6.4S177.6,100.1,180.6,100.1Zm1.9,11.5c1.1,0,1.4-.8,1.4-2a11.77,11.77,0,0,0-.5-3.1c-.7-2.6-1.2-4.6-5.2-4.6h0c-.8,0-1.1.8-1.1,2a12.44,12.44,0,0,0,.5,3.1C178.2,109.5,179.3,111.6,182.5,111.6Z" transform="translate(-14.2 -2.26)"/><path class="cls-18" d="M195.3,109.7a2.93,2.93,0,0,1-1,2,5.26,5.26,0,0,1-3.9,1.3,5.2,5.2,0,0,1-4-1.6l2-2.2a4.4,4.4,0,0,0,3.9,2.4c.7,0,1-.2,1-.6,0-.9-2.2-2.9-4.6-4.3a4.41,4.41,0,0,1-2.1-3.3,3.55,3.55,0,0,1,.2-1c1.1-2.1,2.5-2.3,4.8-2.3a5.6,5.6,0,0,1,2.9,1l-1,2.7c-1.2-1-2.6-2.2-4.4-2.2h0c-.6,0-.8.2-.8.5,0,.8,1.5,2.3,2.8,3C193.1,106.4,195.3,107.9,195.3,109.7Z" transform="translate(-14.2 -2.26)"/><path class="cls-18" d="M198.7,100.4h4.7a5.19,5.19,0,0,1,5.2,5.5c0,6.8-6,6.8-6,6.8h-4a3.85,3.85,0,0,0,.7-2v-8.4A2.59,2.59,0,0,0,198.7,100.4Zm3,10.3v.8h.5c.7,0,3.9-.3,3.9-5.2,0-4.7-3.6-4.7-3.6-4.7h-.8v9.1Z" transform="translate(-14.2 -2.26)"/><path class="cls-18" d="M215.1,100.1c3,0,5.4,1.8,5.4,6.5s-2.4,6.4-5.4,6.4-5.4-1.7-5.4-6.4S212.2,100.1,215.1,100.1Zm1.9,11.5c1.1,0,1.4-.8,1.4-2a11.77,11.77,0,0,0-.5-3.1c-.7-2.6-1.2-4.6-5.2-4.6h0c-.8,0-1.1.8-1.1,2a12.44,12.44,0,0,0,.5,3.1C212.7,109.5,213.9,111.6,217,111.6Z" transform="translate(-14.2 -2.26)"/><path class="cls-18" d="M229.9,109.7a2.93,2.93,0,0,1-1,2A5.26,5.26,0,0,1,225,113a5.2,5.2,0,0,1-4-1.6l2-2.2a4.4,4.4,0,0,0,3.9,2.4c.7,0,1-.2,1-.6,0-.9-2.2-2.9-4.6-4.3a4.41,4.41,0,0,1-2.1-3.3,3.55,3.55,0,0,1,.2-1c1.1-2.1,2.5-2.3,4.8-2.3a5.6,5.6,0,0,1,2.9,1l-1,2.7c-1.2-1-2.6-2.2-4.4-2.2h0c-.6,0-.8.2-.8.5,0,.8,1.5,2.3,2.8,3C227.6,106.4,229.9,107.9,229.9,109.7Z" transform="translate(-14.2 -2.26)"/><text class="cls-19" transform="translate(52.6 178.33)"><tspan class="cls-20">A</tspan><tspan x="34.79" y="0">Ç</tspan><tspan class="cls-21" x="70.63" y="0">O</tspan><tspan x="109.14" y="0">RES</tspan></text></svg>