<svg id="Layer_1" data-name="Layer 1" xmlns="http://www.w3.org/2000/svg" xmlns:xlink="http://www.w3.org/1999/xlink" viewBox="0 0 850 187.2"><defs><style>.cls-1{fill:url(#linear-gradient);}.cls-2{fill:#fbb03b;}.cls-3{fill:#1099dd;}.cls-4{fill:#5cd1ff;}.cls-5{fill:#006da3;}</style><linearGradient id="linear-gradient" x1="3.52" y1="-789" x2="846.48" y2="-789" gradientTransform="matrix(1, 0, 0, -1, 0, -695.4)" gradientUnits="userSpaceOnUse"><stop offset="0" stop-color="#20b2aa"/><stop offset="1" stop-color="#007786"/></linearGradient></defs><title>question</title><polygon class="cls-1" points="754.3 5 95.7 5 7.1 93.6 95.7 182.2 754.3 182.2 842.9 93.6 754.3 5"/><path class="cls-2" d="M756.4,0H93.6L0,93.6l93.6,93.6H756.4L850,93.6ZM95.7,182.2,7.1,93.6,95.7,5H754.3l88.6,88.6-88.6,88.6Z"/><rect class="cls-2" x="63.76" y="80.69" width="26.9" height="26.9" transform="translate(-43.95 82.17) rotate(-45)"/><rect class="cls-3" x="68.66" y="85.59" width="17.1" height="17.1" transform="translate(-43.95 82.17) rotate(-45)"/><polygon class="cls-4" points="77.2 82.2 77.2 94.3 89.3 94.3 77.2 82.2"/><polygon class="cls-5" points="77.2 106.4 77.2 94.3 65.1 94.3 77.2 106.4"/><rect class="cls-2" x="84.07" y="44.61" width="23.1" height="23.1" transform="translate(-11.71 84.06) rotate(-45)"/><rect class="cls-3" x="89.57" y="49.97" width="12.2" height="12.2" transform="translate(-11.63 84.07) rotate(-45)"/><polygon class="cls-4" points="95.7 47.5 95.7 56.2 104.3 56.2 95.7 47.5"/><polygon class="cls-5" points="95.7 64.8 95.7 56.2 87 56.2 95.7 64.8"/><rect class="cls-2" x="84.07" y="120.74" width="23.1" height="23.1" transform="translate(-65.53 106.36) rotate(-45)"/><rect class="cls-3" x="89.57" y="126.1" width="12.2" height="12.2" transform="translate(-65.46 106.37) rotate(-45)"/><polygon class="cls-4" points="95.7 123.7 95.7 132.3 104.3 132.3 95.7 123.7"/><polygon class="cls-5" points="95.7 140.9 95.7 132.3 87 132.3 95.7 140.9"/><rect class="cls-2" x="760.09" y="80.09" width="26.9" height="26.9" transform="translate(160.42 574.38) rotate(-45)"/><rect class="cls-3" x="764.99" y="84.99" width="17.1" height="17.1" transform="translate(160.42 574.38) rotate(-45)"/><polygon class="cls-4" points="761.4 93.6 773.5 93.6 773.5 81.5 761.4 93.6"/><polygon class="cls-5" points="785.6 93.6 773.5 93.6 773.5 105.7 785.6 93.6"/><rect class="cls-2" x="743.51" y="44.03" width="23.1" height="23.1" transform="translate(181.85 550.19) rotate(-45)"/><rect class="cls-3" x="749.01" y="49.39" width="12.2" height="12.2" transform="translate(181.93 550.2) rotate(-45)"/><polygon class="cls-4" points="746.4 55.5 755 55.5 755 46.9 746.4 55.5"/><polygon class="cls-5" points="763.7 55.5 755 55.5 755 64.1 763.7 55.5"/><rect class="cls-2" x="743.5" y="120.13" width="23.1" height="23.1" transform="translate(128.04 572.47) rotate(-45)"/><rect class="cls-3" x="749" y="125.48" width="12.2" height="12.2" transform="translate(128.12 572.47) rotate(-45)"/><polygon class="cls-4" points="746.4 131.6 755 131.6 755 123 746.4 131.6"/><polygon class="cls-5" points="763.7 131.6 755 131.6 755 140.2 763.7 131.6"/></svg>